<svg xmlns="http://www.w3.org/2000/svg" width="16" height="16" viewBox="0 0 16 16" fill="none">
  <g clip-path="url(#clip0_1_182)">
    <path fill-rule="evenodd" clip-rule="evenodd" d="M14.76 14.7599C14.37 15.1509 13.737 15.1509 13.346 14.7599L10.446 11.8599C8.10399 13.5269 4.83999 13.3249 2.73999 11.2239C0.395995 8.87994 0.395995 5.08194 2.73999 2.73894C5.08299 0.395939 8.88199 0.395939 11.225 2.73894C13.326 4.83994 13.527 8.10194 11.86 10.4449L14.76 13.3439C15.151 13.7359 15.151 14.3679 14.76 14.7599ZM9.81099 4.15394C8.24799 2.58994 5.71599 2.58994 4.15399 4.15394C2.59199 5.71494 2.59199 8.24694 4.15399 9.80994C5.71599 11.3709 8.24799 11.3709 9.81099 9.80994C11.373 8.24694 11.373 5.71494 9.81099 4.15394Z" fill="white"/>
  </g>
  <defs>
    <clipPath id="clip0_1_182">
      <rect width="16" height="16" fill="white"/>
    </clipPath>
  </defs>
</svg>